<svg xmlns="http://www.w3.org/2000/svg" xmlns:xlink="http://www.w3.org/1999/xlink" width="24" height="24" viewBox="0 0 24 24">
  <defs>
    <clipPath id="clip-icon-1">
      <rect width="24" height="24"/>
    </clipPath>
  </defs>
  <g id="icon-1" clip-path="url(#clip-icon-1)">
    <rect width="24" height="24" fill="#fff" fill-opacity="0"/>
    <g id="Rectangle_1" data-name="Rectangle 1" transform="translate(3 1)" fill="#fff" stroke="#000" stroke-width="2">
      <rect width="19" height="22" rx="4" stroke="none"/>
      <rect x="1" y="1" width="17" height="20" rx="3" fill="none"/>
    </g>
    <g id="Group_2" data-name="Group 2" transform="translate(1 -0.5)">
      <line id="Line_2" data-name="Line 2" x2="3" transform="translate(1.5 8.5)" fill="none" stroke="#000" stroke-linecap="round" stroke-width="2"/>
      <line id="Line_3" data-name="Line 3" x2="3" transform="translate(1.5 12.5)" fill="none" stroke="#000" stroke-linecap="round" stroke-width="2"/>
      <line id="Line_4" data-name="Line 4" x2="3" transform="translate(1.5 16.5)" fill="none" stroke="#000" stroke-linecap="round" stroke-width="2"/>
    </g>
    <circle id="Ellipse_7" data-name="Ellipse 7" cx="2.5" cy="2.5" r="2.5" transform="translate(10 7)"/>
    <path id="Path_1" data-name="Path 1" d="M7.968,11.944H1a1,1,0,0,1-1-.995,4,4,0,0,1,2.289-3.6,4,4,0,0,0,4.385,0,4,4,0,0,1,2.288,3.6A1,1,0,0,1,7.968,11.944Z" transform="translate(8 5)"/>
  </g>
</svg>
